<svg xmlns="http://www.w3.org/2000/svg" xmlns:xlink="http://www.w3.org/1999/xlink" width="500" zoomAndPan="magnify" viewBox="0 0 375 374.999991" height="500" preserveAspectRatio="xMidYMid meet" version="1.0"><defs><clipPath id="1b8bc9ede3"><path d="M 203 114 L 351.9375 114 L 351.9375 375 L 203 375 Z M 203 114 " clip-rule="nonzero"/></clipPath><clipPath id="466c2a93aa"><path d="M 23.4375 114 L 172 114 L 172 375 L 23.4375 375 Z M 23.4375 114 " clip-rule="nonzero"/></clipPath></defs><path fill="#ffffff" d="M 288.390625 114.546875 L 187.5 55.449219 L 86.609375 114.546875 L 39.261719 86.808594 L 187.5 0 L 335.757812 86.808594 Z M 288.390625 114.546875 " fill-opacity="1" fill-rule="nonzero"/><path fill="#ffffff" d="M 118.148438 251.1875 L 187.484375 210.605469 L 256.835938 251.234375 L 187.5 291.824219 Z M 118.148438 251.1875 " fill-opacity="1" fill-rule="nonzero"/><path fill="#ffffff" d="M 203.277344 101.667969 L 272.628906 142.273438 L 272.628906 223.496094 L 203.277344 182.890625 Z M 203.277344 101.667969 " fill-opacity="1" fill-rule="nonzero"/><path fill="#ffffff" d="M 171.707031 182.878906 L 102.390625 223.46875 L 102.390625 142.273438 L 171.707031 101.679688 Z M 171.707031 182.878906 " fill-opacity="1" fill-rule="nonzero"/><g clip-path="url(#1b8bc9ede3)"><path fill="#ffffff" d="M 351.515625 288.21875 L 203.277344 375 L 203.277344 319.550781 L 304.214844 260.453125 L 304.214844 142.242188 L 351.5625 114.535156 L 351.5625 288.132812 Z M 351.515625 288.21875 " fill-opacity="1" fill-rule="nonzero"/></g><g clip-path="url(#466c2a93aa)"><path fill="#ffffff" d="M 70.800781 142.242188 L 70.800781 260.453125 L 171.707031 319.519531 L 171.707031 375 L 23.4375 288.191406 L 23.4375 114.535156 Z M 70.800781 142.242188 " fill-opacity="1" fill-rule="nonzero"/></g></svg>